<svg xmlns="http://www.w3.org/2000/svg" viewBox="0 0 445.68 319.32"><line x1="185.12" y1="319.32" x2="184.36" y2="319.32" fill="none"/><line x1="261.32" y1="319.32" x2="260.57" y2="319.32" fill="none"/><polygon points="408.2 0 408.2 64.92 407.58 65.99 220.66 65.99 258.76 0 408.2 0" fill="#a7a9ac"/><polygon points="445.68 0 423.85 37.81 408.2 64.92 407.58 65.99 401.43 76.64 401.43 76.65 261.32 319.32 260.57 319.32 222.85 253.98 331.38 65.99 369.48 0 445.68 0" fill="#266f9b"/><polygon points="255.52 310.57 274.02 297.33 261.32 261.99 255.52 310.57" fill="#3386c1"/><polygon points="261.32 261.8 232.33 270.2 222.85 253.79 261.32 261.8" fill="#266f9b"/><polygon points="244.19 217.01 261.32 261.99 222.85 253.98 244.19 217.01" fill="#1f6284"/><polygon points="261.32 261.99 284.16 246.99 250.93 234.7 261.32 261.99" fill="#266f9b"/><polygon points="284.16 246.99 289.57 270.4 261.32 261.99 284.16 246.99" fill="#3386c1"/><polygon points="244.19 217.01 274.02 211.49 250.93 234.7 244.19 217.01" fill="#266f9b"/><polygon points="284.16 246.99 308.71 237.24 289.57 270.4 284.16 246.99" fill="#1f6284"/><polygon points="291.89 218.8 308.71 237.24 284.16 246.99 291.89 218.8" fill="#3386c1"/><polygon points="291.89 218.8 328.09 203.67 308.71 237.24 291.89 218.8" fill="#1f6284"/><polygon points="274.02 211.49 284.16 246.99 250.93 234.7 274.02 211.49" fill="#1f6284"/><polygon points="274.02 211.49 291.89 218.8 284.16 246.99 274.02 211.49" fill="#266f9b"/><polygon points="260.94 188.01 244.19 217.01 274.02 211.49 260.94 188.01" fill="#1f6284"/><polygon points="274.02 211.49 289.57 206.99 291.89 218.8 274.02 211.49" fill="#1f6284"/><polygon points="291.89 218.8 328.09 203.67 289.57 206.99 291.89 218.8" fill="#266f9b"/><polygon points="274.02 211.49 280.66 195.66 260.94 188.01 274.02 211.49" fill="#266f9b"/><polygon points="274.02 211.49 289.57 206.99 280.66 195.66 274.02 211.49" fill="#3386c1"/><polygon points="289.57 206.99 302.99 195.66 328.09 203.67 289.57 206.99" fill="#3386c1"/><polygon points="280.66 195.66 302.99 195.66 289.57 206.99 280.66 195.66" fill="#5e58a6"/><polygon points="260.94 188.01 284.16 170.66 280.66 195.66 260.94 188.01" fill="#1f6284"/><polygon points="277.3 159.66 284.16 170.66 260.94 188.01 277.3 159.66" fill="#266f9b"/><polygon points="284.16 170.66 302.99 195.66 280.66 195.66 284.16 170.66" fill="#266f9b"/><polygon points="302.99 195.66 337.14 188.01 328.09 203.67 302.99 195.66" fill="#1f6284"/><polygon points="284.16 170.66 337.14 188.01 302.99 195.66 284.16 170.66" fill="#1f6284"/><polygon points="284.16 170.66 285.2 145.99 277.3 159.66 284.16 170.66" fill="#1f6284"/><polygon points="285.2 145.99 302.99 176.83 284.16 170.66 285.2 145.99" fill="#266f9b"/><polygon points="302.99 176.83 325.99 164.66 337.14 188.01 302.99 176.83" fill="#1f6284"/><polygon points="302.99 176.83 325.99 164.66 314.49 145.99 302.99 176.83" fill="#266f9b"/><polygon points="285.2 145.99 309.39 159.66 302.99 176.83 285.2 145.99" fill="#1f6284"/><polygon points="325.99 164.66 345.32 173.84 337.14 188.01 325.99 164.66" fill="#4096cc"/><polygon points="314.49 145.99 343.66 145.99 325.99 164.66 314.49 145.99" fill="#3386c1"/><polygon points="314.49 145.99 285.2 145.99 309.39 159.66 314.49 145.99" fill="#3386c1"/><polygon points="309.39 104.09 314.49 145.99 285.2 145.99 309.39 104.09" fill="#266f9b"/><polygon points="314.49 145.99 343.66 145.99 311.94 125.04 314.49 145.99" fill="#1f6284"/><polygon points="343.66 145.99 345.32 173.84 325.99 164.66 343.66 145.99" fill="#3386c1"/><polygon points="309.39 104.09 311.94 125.04 332.33 114.56 309.39 104.09" fill="#1f6284"/><polygon points="332.33 114.56 343.66 145.99 311.94 125.04 332.33 114.56" fill="#266f9b"/><polygon points="343.66 145.99 345.32 173.84 356 155.33 343.66 145.99" fill="#266f9b"/><polygon points="343.66 145.99 362.66 143.8 356 155.33 343.66 145.99" fill="#3386c1"/><polygon points="332.33 114.56 356 114.56 343.66 145.99 332.33 114.56" fill="#3386c1"/><polygon points="343.66 145.99 356 114.56 362.66 143.8 343.66 145.99" fill="#4096cc"/><polygon points="302.99 176.83 302.99 195.66 337.14 188.01 302.99 176.83" fill="#266f9b"/><polygon points="369.48 0 392.66 26.99 408.2 0 369.48 0" fill="#4096cc"/><polygon points="408.2 0 434.7 19.02 445.68 0 408.2 0" fill="#55adda"/><polygon points="408.2 0 392.66 26.99 434.7 19.02 408.2 0" fill="#55adda"/><polygon points="345.32 41.85 392.66 26.99 369.48 0 345.32 41.85" fill="#3386c1"/><polygon points="392.66 26.99 423.85 37.81 434.7 19.02 392.66 26.99" fill="#4096cc"/><polygon points="423.85 37.81 408.2 64.92 407.58 65.99 401.43 76.64 399.55 65.99 392.66 26.99 408.2 32.38 423.85 37.81" fill="#55adda"/><polygon points="392.66 26.99 385.66 51.82 401.43 76.65 392.66 26.99" fill="#3386c1"/><polygon points="392.66 26.99 345.32 41.85 385.66 51.82 392.66 26.99" fill="#4096cc"/><polygon points="385.66 51.82 378.66 63.99 401.43 76.65 385.66 51.82" fill="#3386c1"/><polygon points="378.66 63.99 385.66 51.82 362.66 46.14 378.66 63.99" fill="#266f9b"/><polygon points="362.66 46.14 359.16 73.99 378.66 63.99 362.66 46.14" fill="#3386c1"/><polygon points="401.43 76.65 390.04 96.37 378.66 63.99 401.43 76.65" fill="#4096cc"/><polygon points="378.66 63.99 359.16 73.99 383.11 76.65 378.66 63.99" fill="#266f9b"/><polygon points="383.11 76.65 383.11 108.38 390.04 96.37 383.11 76.65" fill="#266f9b"/><polygon points="345.32 41.85 361.17 57.99 362.66 46.14 345.32 41.85" fill="#266f9b"/><polygon points="361.17 57.99 359.16 73.99 345.32 41.85 361.17 57.99" fill="#4096cc"/><polygon points="359.16 73.99 383.11 108.38 383.11 76.65 359.16 73.99" fill="#4096cc"/><polygon points="369.48 0 373.53 33 392.66 26.99 369.48 0" fill="#55adda"/><polygon points="332.33 114.56 309.39 104.09 337.14 96.37 332.33 114.56" fill="#3386c1"/><polygon points="337.14 96.37 356 114.56 332.33 114.56 337.14 96.37" fill="#266f9b"/><polygon points="356 114.56 374.16 123.88 362.66 143.8 356 114.56" fill="#3386c1"/><polygon points="374.16 123.88 383.11 108.38 356 114.56 374.16 123.88" fill="#266f9b"/><polygon points="356 114.56 369.56 88.92 383.11 108.38 356 114.56" fill="#3386c1"/><polygon points="337.14 96.37 369.56 88.92 356 114.56 337.14 96.37" fill="#1f6284"/><polygon points="337.14 96.37 359.16 73.99 369.56 88.92 337.14 96.37" fill="#266f9b"/><polygon points="337.14 96.37 309.39 104.09 320.86 84.23 337.14 96.37" fill="#266f9b"/><polygon points="320.86 84.23 348.15 85.18 337.14 96.37 320.86 84.23" fill="#1f6284"/><polygon points="348.15 85.18 320.86 84.23 331.38 66 348.15 85.18" fill="#266f9b"/><polygon points="331.38 66 345.32 41.85 359.16 73.99 331.38 66" fill="#266f9b"/><polygon points="220.66 66 259.11 49.92 244.19 25.23 220.66 66" fill="#a7cee1"/><polygon points="244.19 25.23 272.55 25.23 259.11 49.92 244.19 25.23" fill="#8aabc3"/><polygon points="259.11 49.92 264.77 65.99 220.66 66 259.11 49.92" fill="#99bcce"/><polygon points="258.76 0 272.55 25.23 244.19 25.23 258.76 0" fill="#9fc6dd"/><polygon points="272.55 25.23 293.58 0 258.76 0 272.55 25.23" fill="#8aabc3"/><polygon points="272.55 25.23 291.83 28.42 293.58 0 272.55 25.23" fill="#7997aa"/><polygon points="272.55 25.23 277.3 51.82 259.11 49.92 272.55 25.23" fill="#81a1b5"/><polygon points="277.3 51.82 264.77 65.99 259.11 49.92 277.3 51.82" fill="#7f9dad"/><polygon points="277.3 51.82 291.83 28.42 272.55 25.23 277.3 51.82" fill="#8aabc3"/><polygon points="293.58 0 314.49 14.21 291.83 28.42 293.58 0" fill="#7fa1ba"/><polygon points="291.83 28.42 299.85 41.85 314.49 14.21 291.83 28.42" fill="#a7a9ac"/><polygon points="299.85 41.85 277.3 51.82 291.83 28.42 299.85 41.85" fill="#7591a5"/><polygon points="277.3 51.82 288.57 66 264.77 65.99 277.3 51.82" fill="#6f8a9b"/><polygon points="277.3 51.82 288.57 66 299.85 41.85 277.3 51.82" fill="#7997aa"/><polygon points="291.83 28.42 299.85 41.85 314.49 14.21 291.83 28.42" fill="#91b5ce"/><polygon points="293.58 0 314.49 14.21 334.5 0 293.58 0" fill="#748ea5"/><polygon points="334.5 0 359.95 16.5 369.48 0 334.5 0" fill="#3a465b"/><polygon points="314.49 14.21 334.5 0 340.35 20.93 314.49 14.21" fill="#517188"/><polygon points="314.49 14.21 299.85 41.85 320.06 45.61 314.49 14.21" fill="#7ea0ba"/><polygon points="314.49 14.21 320.06 45.61 340.35 20.93 314.49 14.21" fill="#748ea5"/><polygon points="340.35 20.93 320.06 45.61 345.32 41.85 340.35 20.93" fill="#5b7589"/><polygon points="299.85 41.85 288.57 66 320.06 45.61 299.85 41.85" fill="#708da0"/><polygon points="320.06 45.61 331.38 66 288.57 66 320.06 45.61" fill="#658193"/><polygon points="320.06 45.61 331.38 66 345.32 41.85 320.06 45.61" fill="#748ea5"/><polygon points="334.5 0 345.32 41.85 359.95 16.5 334.5 0" fill="#4f5e72"/><polygon points="261.32 261.99 274.02 297.33 289.57 270.4 261.32 261.99" fill="#1f6284"/><polygon points="331.38 66 348.15 85.18 359.16 73.99 331.38 66" fill="#3386c1"/><polygon points="261.32 261.99 255.52 310.57 232.33 270.4 261.32 261.99" fill="#1f6284"/><polygon points="280.66 195.66 302.99 195.66 289.57 206.99 280.66 195.66" fill="#1f6284"/><polygon points="64.94 187.17 0 149.68 0 78.55 64.94 187.17" fill="#6a83a0"/><polygon points="65.16 125.41 65.16 187.3 64.94 187.18 64.94 187.17 0 78.55 0 12.55 65.16 125.41" fill="#556782"/><polygon points="65.16 112.86 65.16 145.99 0 36.99 0 0 65.16 112.86" fill="#3a465b"/><polygon points="260.57 319.32 184.36 319.32 65.16 112.86 64.75 112.15 0 0 76.21 0 222.85 253.98 260.57 319.32" fill="#3386c1"/></svg>