<?xml version="1.0" standalone="no"?>
<!DOCTYPE svg PUBLIC "-//W3C//DTD SVG 20010904//EN"
 "http://www.w3.org/TR/2001/REC-SVG-20010904/DTD/svg10.dtd">
<svg version="1.0" xmlns="http://www.w3.org/2000/svg"
 width="892.000000pt" height="892.000000pt" viewBox="0 0 892.000000 892.000000"
 preserveAspectRatio="xMidYMid meet">
<metadata>
Created by potrace 1.14, written by Peter Selinger 2001-2017
</metadata>
<g transform="translate(0.000000,892.000000) scale(0.100000,-0.100000)"
fill="#000000" stroke="none">
<path d="M0 6152 l0 -1498 156 -90 c86 -49 173 -99 193 -111 20 -13 47 -28 61
-34 13 -5 27 -13 30 -17 3 -4 21 -15 40 -26 55 -29 100 -55 161 -92 31 -19 62
-34 68 -34 6 0 11 -4 11 -10 0 -5 6 -10 14 -10 7 0 24 -8 37 -18 13 -11 49
-32 79 -49 127 -69 415 -238 418 -245 6 -13 29 -9 34 5 2 6 4 335 3 730 0 395
3 721 7 723 5 3 8 1 8 -4 0 -5 44 -85 98 -178 54 -93 110 -189 124 -214 14
-25 73 -128 132 -229 58 -101 106 -186 106 -189 0 -3 6 -13 14 -21 8 -9 26
-38 41 -66 14 -27 35 -63 46 -80 10 -16 24 -42 30 -57 6 -16 15 -28 20 -28 5
0 9 -5 9 -11 0 -9 188 -341 220 -389 6 -8 17 -28 26 -45 8 -16 23 -43 34 -60
11 -16 23 -37 27 -45 4 -8 20 -37 36 -65 17 -27 37 -63 47 -80 9 -16 59 -102
110 -190 51 -88 102 -178 114 -200 12 -22 23 -42 26 -45 3 -3 11 -15 18 -27 6
-13 18 -33 25 -45 6 -13 14 -25 17 -28 3 -3 11 -16 17 -30 15 -30 42 -77 111
-193 28 -48 52 -90 52 -93 0 -2 11 -23 26 -45 14 -22 34 -56 45 -75 37 -66 57
-100 88 -152 17 -29 31 -57 31 -62 0 -6 5 -10 10 -10 6 0 10 -4 10 -10 0 -5
45 -86 100 -181 55 -94 100 -173 100 -174 0 -2 18 -33 40 -69 22 -36 40 -70
40 -76 0 -5 5 -10 10 -10 6 0 10 -4 10 -9 0 -5 19 -42 43 -83 24 -40 55 -93
69 -118 14 -25 57 -101 97 -169 39 -68 71 -127 71 -132 0 -5 4 -9 9 -9 5 0 11
-8 14 -17 4 -10 17 -36 30 -58 l24 -40 774 0 c763 0 774 0 784 20 26 51 70
121 80 127 5 4 7 8 3 8 -6 0 43 89 82 150 6 8 16 26 22 40 7 14 15 27 18 30 3
3 17 26 30 52 14 27 28 48 32 48 5 0 8 6 8 14 0 7 9 25 21 40 11 14 17 26 14
26 -4 0 3 15 17 33 13 17 32 50 43 72 11 22 23 42 26 45 3 3 9 12 13 20 4 8
12 24 19 35 7 11 46 79 87 150 41 72 80 138 85 147 44 74 85 150 85 158 0 6 3
10 8 10 4 0 18 21 32 48 13 26 39 70 57 99 18 29 33 54 33 56 0 3 25 46 55 96
30 51 55 94 55 97 0 2 12 23 27 47 15 23 28 44 28 47 0 3 26 48 56 100 31 52
82 140 114 195 130 224 201 347 215 373 8 15 30 50 47 80 18 29 33 54 33 57 0
2 30 55 66 117 106 181 134 229 283 488 77 135 144 250 148 255 4 6 24 40 43
78 19 37 38 67 43 67 4 0 7 4 7 9 0 8 87 164 139 251 54 89 151 263 151 271 0
5 4 9 8 9 4 0 23 28 41 63 18 34 50 91 72 126 21 34 39 64 39 65 0 2 93 165
195 341 32 55 66 114 75 130 10 17 68 118 130 225 62 107 126 220 143 250 17
30 33 57 37 60 3 3 14 21 23 40 10 19 26 49 36 65 55 90 241 419 241 425 0 5
3 10 8 12 4 2 49 77 101 168 52 91 103 177 113 193 11 15 16 27 11 27 -4 0 -3
4 3 8 6 4 25 33 43 65 l32 57 -1873 0 -1873 0 -81 -143 c-45 -78 -132 -230
-194 -337 -62 -107 -122 -211 -132 -230 -47 -83 -55 -98 -86 -148 -17 -29 -32
-54 -32 -57 0 -4 -97 -170 -120 -205 -6 -8 -13 -22 -17 -30 -4 -8 -27 -48 -51
-89 -23 -40 -41 -75 -38 -78 2 -3 496 -5 1098 -5 601 0 1097 -2 1101 -5 4 -3
3 -11 -3 -18 -6 -7 -58 -95 -116 -196 -59 -101 -114 -197 -124 -214 -41 -72
-126 -217 -135 -233 -6 -9 -23 -39 -38 -67 -15 -27 -37 -65 -48 -84 -33 -56
-171 -294 -188 -326 -9 -16 -18 -32 -21 -35 -3 -3 -16 -25 -29 -50 -14 -25
-29 -48 -34 -51 -5 -3 -9 -10 -9 -15 0 -10 -37 -77 -74 -136 -13 -21 -24 -40
-24 -42 0 -2 -20 -38 -44 -79 -54 -91 -164 -282 -299 -517 -56 -96 -105 -176
-109 -178 -4 -2 -8 -12 -8 -23 0 -10 -4 -19 -10 -19 -5 0 -10 -5 -10 -10 0 -6
-20 -43 -44 -83 -23 -39 -60 -101 -80 -137 -20 -36 -41 -72 -46 -80 -5 -8 -32
-53 -58 -100 -27 -47 -101 -175 -164 -285 -64 -110 -125 -216 -136 -235 -11
-19 -52 -91 -92 -160 -40 -69 -82 -141 -92 -160 -11 -19 -45 -77 -75 -129
l-55 -94 -46 84 c-25 46 -49 86 -54 87 -4 2 -8 8 -8 12 0 5 -31 63 -70 129
-38 66 -70 125 -70 131 0 5 -4 10 -10 10 -5 0 -10 4 -10 9 0 4 -52 97 -115
206 -63 108 -115 199 -115 201 0 3 -51 89 -109 184 -8 14 -25 43 -37 65 -24
45 -34 62 -127 222 -36 62 -77 132 -90 155 -26 47 -24 44 -157 273 -51 88
-104 180 -118 205 -14 25 -36 62 -49 82 -12 21 -23 40 -23 42 0 3 -18 34 -40
68 -22 35 -40 69 -40 76 0 6 -3 12 -7 12 -5 0 -26 34 -48 75 -22 41 -43 75
-47 75 -5 0 -8 9 -8 19 0 11 -4 22 -9 26 -6 3 -16 18 -24 33 -8 15 -56 99
-107 187 -51 88 -104 180 -118 205 -13 25 -28 50 -32 55 -4 6 -19 30 -32 55
-14 25 -64 112 -112 193 -47 82 -86 153 -86 158 0 5 -4 9 -10 9 -5 0 -10 4
-10 10 0 5 -20 44 -45 86 -25 41 -45 80 -45 85 0 5 -4 9 -10 9 -5 0 -10 4 -10
10 0 8 -72 138 -100 180 -6 8 -13 22 -17 30 -4 8 -24 43 -45 78 -21 34 -38 64
-38 66 0 2 -43 76 -95 165 -52 89 -95 164 -95 167 0 3 -8 18 -19 32 -10 15
-29 47 -43 72 -14 25 -34 61 -45 80 -12 19 -42 73 -69 120 -27 47 -52 87 -56
88 -4 2 -8 8 -8 13 0 6 -24 51 -54 102 -48 82 -75 129 -110 192 -7 11 -29 50
-51 88 l-39 67 -763 0 -763 0 0 -1498z"/>
</g>
</svg>
